<svg width="114" height="41" viewBox="0 0 114 41" fill="none" xmlns="http://www.w3.org/2000/svg">
<path d="M42.1412 36.578V32.0205L41.845 31.0499V23.0742C41.845 21.5269 41.3795 20.3312 40.4486 19.4872C39.5176 18.6151 38.1071 18.179 36.217 18.179C34.9475 18.179 33.6922 18.376 32.4509 18.7698C31.2379 19.1637 30.2082 19.7123 29.3619 20.4156L27.2884 16.5754C28.5014 15.6471 29.9402 14.9578 31.6046 14.5077C33.2972 14.0294 35.0463 13.7903 36.8517 13.7903C40.1242 13.7903 42.649 14.578 44.4263 16.1535C46.2318 17.7008 47.1345 20.1061 47.1345 23.3696V36.578H42.1412ZM35.0322 36.8734C33.3395 36.8734 31.8585 36.5921 30.589 36.0294C29.3195 35.4386 28.3322 34.6368 27.6269 33.624C26.9499 32.5831 26.6113 31.4156 26.6113 30.1215C26.6113 28.8555 26.9075 27.7161 27.5 26.7033C28.1206 25.6905 29.1221 24.8887 30.5044 24.298C31.8867 23.7072 33.7204 23.4118 36.0054 23.4118H42.5644V26.9143H36.3863C34.5808 26.9143 33.3677 27.2097 32.7471 27.8005C32.1265 28.3632 31.8162 29.0665 31.8162 29.9105C31.8162 30.867 32.197 31.6266 32.9587 32.1893C33.7204 32.7519 34.7783 33.0332 36.1324 33.0332C37.4301 33.0332 38.5867 32.7379 39.6023 32.1471C40.6461 31.5563 41.3936 30.6841 41.845 29.5307L42.7336 32.6957C42.2259 34.0179 41.309 35.0448 39.9831 35.7762C38.6854 36.5077 37.0351 36.8734 35.0322 36.8734Z" fill="#333333"/>
<path d="M60.3126 36.8734C57.83 36.8734 55.9117 36.2404 54.5576 34.9744C53.2035 33.6803 52.5264 31.7813 52.5264 29.2775V9.06394H57.8159V29.1509C57.8159 30.2199 58.0839 31.0499 58.6199 31.6407C59.1841 32.2315 59.9599 32.5269 60.9473 32.5269C62.1321 32.5269 63.1195 32.2174 63.9094 31.5985L65.3904 35.3542C64.7698 35.8606 64.0081 36.2404 63.1054 36.4936C62.2027 36.7468 61.2717 36.8734 60.3126 36.8734ZM48.8027 18.4322V14.2123H63.8671V18.4322H48.8027Z" fill="#333333"/>
<path d="M67.6259 36.578V14.0435H72.9154V36.578H67.6259ZM70.2918 10.3299C69.3044 10.3299 68.4863 10.0205 67.8375 9.40153C67.2169 8.78261 66.9065 8.03708 66.9065 7.16496C66.9065 6.26471 67.2169 5.51918 67.8375 4.92839C68.4863 4.30946 69.3044 4 70.2918 4C71.2792 4 72.0832 4.2954 72.7038 4.88619C73.3527 5.44885 73.6771 6.16624 73.6771 7.03836C73.6771 7.96675 73.3668 8.75447 72.7461 9.40153C72.1255 10.0205 71.3074 10.3299 70.2918 10.3299Z" fill="#333333"/>
<path d="M90.5637 13.7903C92.3692 13.7903 93.9772 14.1419 95.3877 14.8453C96.8265 15.5486 97.9549 16.6317 98.773 18.0946C99.5911 19.5294 100 21.3862 100 23.665V36.578H94.7107V24.3402C94.7107 22.3427 94.2311 20.8517 93.2719 19.867C92.341 18.8824 91.0292 18.39 89.3366 18.39C88.0953 18.39 86.9951 18.6432 86.0359 19.1496C85.0768 19.656 84.3292 20.4156 83.7932 21.4284C83.2854 22.413 83.0315 23.665 83.0315 25.1841V36.578H77.742V14.0435H82.7776V20.1202L81.889 18.2634C82.6789 16.8286 83.8214 15.7315 85.3166 14.9719C86.8399 14.1841 88.589 13.7903 90.5637 13.7903Z" fill="#333333"/>
<path d="M13.1402 36.9616C11.2501 36.9616 9.50105 36.5959 7.89305 35.8645C6.31326 35.133 5.01558 34.078 4 32.6995L7.13137 28.9437C7.94947 30.0691 8.83811 30.913 9.79726 31.4757C10.7846 32.0384 11.8566 32.3197 13.0133 32.3197C16.0882 32.3197 17.6257 30.5051 17.6257 26.876V11.5997H7.08905V7H23.1267V26.5806C23.1267 30.0691 22.2663 32.6714 20.5455 34.3875C18.8528 36.1036 16.3844 36.9616 13.1402 36.9616Z" fill="#FFAB00"/>
<circle cx="106" cy="33" r="4" fill="#FFAB00"/>
</svg>
