<svg width="1188" height="620" viewBox="0 0 1188 620" fill="none" xmlns="http://www.w3.org/2000/svg">
<path d="M188.831 416.499C203.431 432.299 211.031 454.299 221.431 486.499C231.831 518.699 245.031 561.299 230.231 588.299C215.431 615.099 172.831 626.299 142.431 614.099C112.231 601.699 94.0311 566.099 71.0311 539.099C48.0311 512.299 20.2311 494.099 7.43112 463.499C-5.16888 432.699 -2.36887 389.499 20.6311 373.499C43.6311 357.699 86.8311 369.099 119.431 379.899C152.031 390.699 174.031 400.499 188.831 416.499Z" fill="#FFAB00"/>
<path d="M635.831 16.0994C652.631 29.0994 662.631 52.6994 662.431 75.8994C662.231 99.2994 652.031 122.299 635.231 136.499C618.431 150.899 595.431 156.099 562.631 165.699C529.831 175.499 487.631 189.299 471.631 175.099C455.631 160.699 466.231 118.499 475.231 85.0994C484.231 51.6994 491.631 27.2994 507.631 14.2994C523.431 1.29943 547.831 -0.500567 571.831 0.0994331C595.631 0.499433 619.231 3.09943 635.831 16.0994Z" fill="#FFAB00"/>
<path d="M1134.83 263.099C1148.83 288.699 1159.23 306.299 1170.83 335.699C1182.43 365.099 1195.23 405.899 1181.23 438.099C1167.03 470.099 1126.23 493.299 1086.63 491.899C1047.23 490.299 1009.23 464.099 981.631 432.099C953.831 400.099 936.431 362.099 943.431 331.299C950.631 300.299 982.231 276.699 1010.03 251.099C1037.83 225.499 1061.43 198.299 1082.23 201.299C1103.03 204.099 1120.63 237.499 1134.83 263.099Z" fill="#FFAB00"/>
</svg>
