<svg width="364" height="450" viewBox="0 0 364 450" fill="none" xmlns="http://www.w3.org/2000/svg">
<path d="M92.7376 348.718C99.9079 356.478 103.64 367.282 108.748 383.096C113.855 398.91 120.338 419.831 113.07 433.091C105.801 446.253 84.8798 451.754 69.9499 445.762C55.1183 439.672 46.18 422.189 34.8844 408.929C23.5888 395.767 9.93579 386.829 3.64953 371.8C-2.53851 356.674 -1.16339 335.458 10.1322 327.6C21.4279 319.841 42.644 325.439 58.6543 330.743C74.6646 336.047 85.4691 340.86 92.7376 348.718Z" fill="#FFAB00"/>
<path d="M183.103 8.07609C191.354 14.4606 196.265 26.0509 196.167 37.4447C196.069 48.9368 191.059 60.2324 182.809 67.2062C174.558 74.2782 163.262 76.832 147.154 81.5467C131.045 86.3596 110.32 93.137 102.462 86.1632C94.6047 79.0912 99.8105 58.3662 104.231 41.9629C108.651 25.5597 112.285 13.5766 120.143 7.19208C127.902 0.807604 139.885 -0.0764018 151.672 0.218267C163.361 0.414712 174.951 1.69161 183.103 8.07609Z" fill="#FFAB00"/>
<path d="M338.203 193.381C345.079 205.954 350.186 214.597 355.883 229.036C361.58 243.475 367.866 263.512 360.991 279.326C354.017 295.042 333.979 306.436 314.531 305.748C295.181 304.962 276.519 292.095 262.964 276.38C249.311 260.664 240.766 242.002 244.204 226.875C247.74 211.651 263.259 200.06 276.912 187.488C290.565 174.915 302.155 161.557 312.37 163.03C322.586 164.406 331.229 180.809 338.203 193.381Z" fill="#FFAB00"/>
</svg>
