<svg width="48" height="48" viewBox="0 0 48 48" fill="none" xmlns="http://www.w3.org/2000/svg">
<path d="M13 44.0002H35C39.9711 44.0002 44 39.9702 44 35.0002V27.3335H4V35.0002C4 39.9702 8.02889 44.0002 13 44.0002Z" fill="#0091EA"/>
<path d="M44 15.1113H4V27.3336H44V15.1113Z" fill="#00B0FF"/>
<path d="M35 4H13C8.02889 4 4 8.02889 4 13V15.1111H44V13C44 8.02889 39.9711 4 35 4Z" fill="#40C4FF"/>
<path d="M22.7264 18.3813L24.6575 15.0846L22.882 12.0546C22.4175 11.2601 21.3964 10.9946 20.602 11.459C19.8075 11.9235 19.5408 12.9446 20.0064 13.739L22.7264 18.3813Z" fill="white"/>
<path d="M27.0954 11.46C26.2998 10.9945 25.2787 11.2611 24.8154 12.0556L15.2109 28.4445H19.0743L27.6898 13.7411C28.1554 12.9467 27.8887 11.9256 27.0954 11.46Z" fill="white"/>
<path d="M35.6904 33.9114L27.2337 19.4814L26.3859 20.9292C25.8926 21.9848 25.8259 23.1781 26.1804 24.2748L32.8159 35.5981C33.1259 36.127 33.6826 36.4214 34.2548 36.4214C34.5404 36.4214 34.8315 36.3481 35.0959 36.1926C35.8904 35.727 36.1559 34.7059 35.6904 33.9114Z" fill="white"/>
<path d="M25.6363 28.3544L25.4463 28.0333C25.2819 27.7844 25.0997 27.551 24.893 27.3433H10.9997C10.0786 27.3433 9.33301 28.0821 9.33301 28.9921C9.33301 29.9021 10.0786 30.641 10.9997 30.641H25.8819C26.0975 29.9155 26.0386 29.1055 25.6363 28.3544Z" fill="white"/>
<path d="M15.8445 33.9568C15.3034 33.339 14.5223 32.919 13.589 32.8912H13.5845C13.2323 32.8812 12.8868 32.9201 12.549 32.9879L12.0079 33.9112C11.5423 34.7056 11.809 35.7268 12.6034 36.1923C12.8679 36.3479 13.159 36.4212 13.4445 36.4212C14.0168 36.4212 14.5745 36.1257 14.8834 35.5979L15.8445 33.9568Z" fill="white"/>
<path d="M30.8844 27.3433H37C37.9211 27.3433 38.6666 28.0821 38.6666 28.9921C38.6666 29.9021 37.9211 30.641 37 30.641H31.0066C30.7911 29.9155 30.6777 27.551 30.8844 27.3433Z" fill="white"/>
</svg>
