<svg width="48" height="48" viewBox="0 0 48 48" fill="none" xmlns="http://www.w3.org/2000/svg">
<path d="M13.4882 4.012C10.7942 2.508 7.6052 3.778 6.4502 6.323L24.1262 24L33.1402 14.986L13.4882 4.012Z" fill="url(#paint0_linear_1620_104)"/>
<path d="M33.1402 33.014L24.1262 24L6.4502 41.677C7.6062 44.223 10.7952 45.492 13.4882 43.989L33.1402 33.014Z" fill="url(#paint1_linear_1620_104)"/>
<path d="M41.419 28.3928C43.139 27.4328 43.999 25.7168 44 23.9998C43.999 22.2828 43.139 20.5658 41.419 19.6068L33.14 14.9858L24.126 23.9998L33.14 33.0138L41.419 28.3928Z" fill="url(#paint2_linear_1620_104)"/>
<path d="M6.45 6.32324C6.168 6.94824 6 7.65224 6 8.40824V39.5872C6 40.3482 6.164 41.0502 6.45 41.6772L24.124 23.9972L6.45 6.32324Z" fill="url(#paint3_linear_1620_104)"/>
<defs>
<linearGradient id="paint0_linear_1620_104" x1="18.1022" y1="3.244" x2="25.2972" y2="34.74" gradientUnits="userSpaceOnUse">
<stop stop-color="#35AB4A"/>
<stop offset="0.297" stop-color="#31A145"/>
<stop offset="0.798" stop-color="#288739"/>
<stop offset="1" stop-color="#237A33"/>
</linearGradient>
<linearGradient id="paint1_linear_1620_104" x1="19.1582" y1="23.862" x2="21.1942" y2="66.931" gradientUnits="userSpaceOnUse">
<stop stop-color="#F14E5D"/>
<stop offset="0.499" stop-color="#EA3D4F"/>
<stop offset="1" stop-color="#E12138"/>
</linearGradient>
<linearGradient id="paint2_linear_1620_104" x1="32.943" y1="14.8988" x2="36.541" y2="43.6118" gradientUnits="userSpaceOnUse">
<stop stop-color="#FFD844"/>
<stop offset="0.519" stop-color="#FFC63F"/>
<stop offset="1" stop-color="#FFB03A"/>
</linearGradient>
<linearGradient id="paint3_linear_1620_104" x1="13.853" y1="5.90124" x2="15.572" y2="42.8112" gradientUnits="userSpaceOnUse">
<stop offset="0.003" stop-color="#0090E6"/>
<stop offset="1" stop-color="#0065A0"/>
</linearGradient>
</defs>
</svg>
