<svg width="48" height="48" viewBox="0 0 48 48" fill="none" xmlns="http://www.w3.org/2000/svg">
<path d="M4 24C4 29.3043 6.10714 34.3914 9.85786 38.1421C13.6086 41.8929 18.6957 44 24 44C29.3043 44 34.3914 41.8929 38.1421 38.1421C41.8929 34.3914 44 29.3043 44 24C44 18.6957 41.8929 13.6086 38.1421 9.85786C34.3914 6.10714 29.3043 4 24 4C18.6957 4 13.6086 6.10714 9.85786 9.85786C6.10714 13.6086 4 18.6957 4 24Z" fill="#8FBFFA"/>
<path d="M4 24C4 29.3043 6.10714 34.3914 9.85786 38.1421C13.6086 41.8929 18.6957 44 24 44C29.3043 44 34.3914 41.8929 38.1421 38.1421C41.8929 34.3914 44 29.3043 44 24C44 18.6957 41.8929 13.6086 38.1421 9.85786C34.3914 6.10714 29.3043 4 24 4C18.6957 4 13.6086 6.10714 9.85786 9.85786C6.10714 13.6086 4 18.6957 4 24Z" stroke="#2859C5" stroke-width="2.85714" stroke-linejoin="round"/>
<path d="M15.4287 24C15.4287 18.6957 16.3318 13.6086 17.9392 9.85786C19.5467 6.10714 21.7269 4 24.0001 4C26.2734 4 28.4536 6.10714 30.0611 9.85786C31.6685 13.6086 32.5716 18.6957 32.5716 24C32.5716 29.3043 31.6685 34.3914 30.0611 38.1421C28.4536 41.8929 26.2734 44 24.0001 44C21.7269 44 19.5467 41.8929 17.9392 38.1421C16.3318 34.3914 15.4287 29.3043 15.4287 24Z" stroke="#2859C5" stroke-width="2.85714" stroke-linejoin="round"/>
<path d="M5.42871 30.6665H42.5716" stroke="#2859C5" stroke-width="2.85714" stroke-linecap="round" stroke-linejoin="round"/>
<path d="M5.42871 17.3335H42.5716" stroke="#2859C5" stroke-width="2.85714" stroke-linecap="round" stroke-linejoin="round"/>
</svg>
